<?xml version="1.0" encoding="UTF-8"?>
<svg version="1.1" xmlns="http://www.w3.org/2000/svg" width="512" height="512">
<path d="M0 0 C1.81119794 0.88820173 3.62040912 1.78046233 5.42797852 2.67602539 C6.40815445 3.15761612 7.38833038 3.63920685 8.39820862 4.13539124 C11.5362078 5.67791398 14.67166308 7.22552246 17.80688477 8.77368164 C21.88802192 10.78461574 25.97023035 12.79336428 30.05297852 14.80102539 C31.06954529 15.30116653 32.08611206 15.80130768 33.13348389 16.31660461 C43.01697968 21.17078627 52.9509098 25.9170759 62.89126587 30.65341187 C68.51896366 33.33942942 74.13098266 36.05794615 79.74438477 38.77368164 C82.22075299 39.97069851 84.6973597 41.16722116 87.17407227 42.36352539 C87.78293274 42.65762299 88.39179321 42.95172058 89.019104 43.25473022 C95.96666958 46.60932659 102.92327606 49.94503128 109.88061523 53.27929688 C115.61121872 56.02721708 121.33667574 58.78545864 127.05688477 61.55493164 C127.70806274 61.87002686 128.35924072 62.18512207 129.03015137 62.50976562 C132.20069673 64.04395762 135.37060535 65.57943452 138.53930664 67.11743164 C139.68979492 67.67430664 140.8402832 68.23118164 142.02563477 68.80493164 C143.03432617 69.29413086 144.04301758 69.78333008 145.08227539 70.28735352 C148.13791507 71.8145118 148.13791507 71.8145118 150.55146694 72.53375435 C156.64893729 74.66454758 156.64893729 74.66454758 158.54043007 77.7406044 C159.36831135 80.20839842 159.92900776 82.63120769 160.43212891 85.18530273 C160.65187063 86.13787429 160.87161236 87.09044584 161.09801292 88.0718832 C161.82020869 91.24412732 162.48699163 94.42546606 163.15454102 97.60961914 C163.65577653 99.85994867 164.16049319 102.10950529 164.66847229 104.35832214 C166.02070071 110.38740521 167.32626464 116.42571926 168.62317657 122.4669075 C169.9683297 128.694892 171.35548529 134.91347988 172.73999023 141.1328125 C174.67387055 149.83540932 176.59509807 158.54059798 178.49914932 167.24977016 C181.43860376 180.6898525 184.46790865 194.10585724 187.59204102 207.50415039 C187.98108872 209.17664084 188.37007223 210.84914622 188.75898743 212.52166748 C190.17987625 218.62754346 191.60332506 224.73280784 193.03518677 230.83612061 C193.98230016 234.87679355 194.9147182 238.92072548 195.84594727 242.96508789 C196.12169083 244.12960983 196.39743439 245.29413177 196.68153381 246.49394226 C196.92222092 247.54733292 197.16290802 248.60072357 197.41088867 249.68603516 C197.62194244 250.59192886 197.83299622 251.49782257 198.05044556 252.4311676 C198.49154659 255.75736319 198.02989585 257.86899529 196.14526367 260.62866211 C195.63398926 261.23081543 195.12271484 261.83296875 194.59594727 262.45336914 C193.73827759 263.47636108 193.73827759 263.47636108 192.86328125 264.52001953 C192.24654541 265.24310303 191.62980957 265.96618652 190.99438477 266.71118164 C189.70533172 268.24785865 188.41758629 269.78563344 187.13110352 271.32446289 C186.49092285 272.08839355 185.85074219 272.85232422 185.19116211 273.6394043 C182.66964318 276.67996009 180.23011718 279.77960235 177.80688477 282.89868164 C173.87124154 287.95276113 169.86069584 292.93891191 165.80688477 297.89868164 C161.91950581 302.65786875 158.09598388 307.44992769 154.36938477 312.33618164 C150.10730577 317.92454778 145.70299178 323.38246677 141.25610352 328.82446289 C137.74602279 333.12554772 134.28521402 337.4599435 130.86938477 341.83618164 C126.92753325 346.88472003 122.91907361 351.87375295 118.86938477 356.83618164 C114.34547066 362.38091727 109.88029604 367.96557097 105.47412109 373.60424805 C101.56067981 378.60860122 97.59305899 383.56833648 93.60351562 388.51220703 C93.13824463 389.09091553 92.67297363 389.66962402 92.19360352 390.26586914 C91.74138082 390.80549475 91.28915812 391.34512035 90.8232317 391.90109825 C89.31347993 393.77455737 89.31347993 393.77455737 88.39915752 395.89510536 C86.99509063 398.54932998 85.7891276 400.02616372 83.36938477 401.83618164 C77.53631413 403.11577297 71.7381127 402.99307642 65.78857422 402.96655273 C63.97300833 402.98722501 62.15747754 403.01120462 60.34199524 403.03823853 C55.4158739 403.10031669 50.49092272 403.11088745 45.56445718 403.10837507 C41.44689372 403.11003726 37.32958336 403.13453249 33.21209782 403.15827429 C23.49231115 403.21302355 13.77313094 403.22368117 4.05322266 403.20874023 C-5.958916 403.1942699 -15.968234 403.26101658 -25.97976083 403.36685503 C-34.58650834 403.45454331 -43.19234693 403.48783731 -51.79953414 403.47878325 C-56.93543721 403.47414719 -62.06906313 403.49059597 -67.20453453 403.56092453 C-72.03972425 403.62506691 -76.87026674 403.62106262 -81.70552254 403.56603622 C-83.47315387 403.55715911 -85.24109645 403.57186967 -87.00827789 403.6127243 C-99.98320827 403.89220468 -99.98320827 403.89220468 -104.41413903 400.45106554 C-107.66889906 397.13434345 -110.20259782 393.43601492 -112.60752928 389.47489285 C-113.95308857 387.31966525 -115.52005334 385.39651677 -117.16186523 383.46118164 C-117.6562207 382.85661133 -118.15057617 382.25204102 -118.65991211 381.62915039 C-119.14524414 381.0374707 -119.63057617 380.44579102 -120.13061523 379.83618164 C-124.63957644 374.31391049 -129.07906328 368.74430958 -133.46655273 363.12524414 C-136.96837875 358.65181322 -140.53878445 354.23755786 -144.13061523 349.83618164 C-148.65815596 344.28700105 -153.12577385 338.69702527 -157.53686523 333.05493164 C-160.87216251 328.79155164 -164.24318957 324.55823769 -167.63061523 320.33618164 C-171.47325891 315.54674607 -175.2861135 310.73612572 -179.06811523 305.89868164 C-183.57031256 300.14369897 -188.16565725 294.46900964 -192.78564453 288.80834961 C-196.82685942 283.8483217 -200.82269514 278.85508916 -204.71923828 273.78027344 C-206.83751589 271.03607845 -208.98511575 268.41074069 -211.38452148 265.90649414 C-212.22885742 264.99641602 -213.07319336 264.08633789 -213.94311523 263.14868164 C-214.70237305 262.38168945 -215.46163086 261.61469727 -216.24389648 260.82446289 C-217.8410284 257.38275608 -217.59485977 256.41783626 -216.86102295 252.79806519 C-216.66472542 251.81539043 -216.46842789 250.83271568 -216.26618195 249.82026291 C-215.95157642 248.34314268 -215.95157642 248.34314268 -215.63061523 246.83618164 C-215.4493383 245.98274799 -215.26806137 245.12931435 -215.0812912 244.25001907 C-214.51360169 241.6487876 -213.92525988 239.05300656 -213.33081055 236.45776367 C-213.1088501 235.48014383 -212.88688965 234.50252399 -212.65820312 233.49527931 C-212.17827724 231.38307384 -211.69725894 229.27111634 -211.21524811 227.15938568 C-210.44147442 223.76832679 -209.6712944 220.3764671 -208.90179443 216.98443604 C-206.37927617 205.87512523 -203.84005094 194.76981593 -201.2743454 183.6703968 C-199.83192243 177.42967712 -198.394292 171.18786017 -196.95874023 164.94555664 C-196.67582626 163.71649471 -196.39291229 162.48743279 -196.10142517 161.22112656 C-192.85474251 147.08201356 -189.76368093 132.94432658 -187.15670013 118.67277908 C-186.25116136 113.76496584 -185.28063062 108.86929826 -184.32580566 103.97088623 C-183.65120899 100.32255606 -183.09367881 96.66868627 -182.5378418 93.00073242 C-179.93577978 78.53521262 -179.93577978 78.53521262 -174.10986328 73.77770996 C-167.95189025 69.96102063 -161.39773358 67.35466849 -154.59448242 64.92193604 C-150.81120545 63.536007 -147.31871097 61.84208485 -143.72436523 60.02368164 C-142.62543945 59.49258789 -141.52651367 58.96149414 -140.39428711 58.41430664 C-138.77876953 57.63313477 -138.77876953 57.63313477 -137.13061523 56.83618164 C-127.1226027 51.99994917 -117.1064305 47.18099563 -107.08374023 42.37524414 C-99.09296577 38.54210614 -91.11063049 34.69164739 -83.13061523 30.83618164 C-74.1364125 26.4907212 -65.13765571 22.15499212 -56.13061523 17.83618164 C-46.68681856 13.30752347 -37.25037966 8.76379618 -27.81811523 4.21118164 C-26.86582031 3.75171143 -26.86582031 3.75171143 -25.89428711 3.28295898 C-24.09139633 2.41300309 -22.28873548 1.54257075 -20.48608398 0.67211914 C-19.4512085 0.17244629 -18.41633301 -0.32722656 -17.35009766 -0.84204102 C-14.69574541 -2.06129375 -14.69574541 -2.06129375 -12.63964844 -3.46606445 C-8.27815869 -4.98084604 -3.92771756 -1.86459273 0 0 Z " fill="#BC6BF9" transform="translate(265.630615234375,57.163818359375)"/>
<path d="M0 0 C2.5908295 2.5908295 2.73715198 4.48911397 3.515625 8.0625 C3.79390137 9.3198999 4.07217773 10.5772998 4.35888672 11.87280273 C4.65594761 13.24853016 4.95298474 14.62426272 5.25 16 C5.56311897 17.4234448 5.87709402 18.84670153 6.19189453 20.26977539 C6.67190689 22.44032008 7.15136102 24.61097168 7.62808228 26.78224182 C8.99600607 33.01193625 10.42678242 39.22599636 11.875 45.4375 C14.36286659 56.18040267 16.8171899 66.93091444 19.25152588 77.68606567 C19.66555538 79.51320642 20.08070778 81.3400931 20.49700928 83.16671753 C21.08184949 85.73414906 21.66253269 88.30248725 22.2421875 90.87109375 C22.50890259 92.03644653 22.50890259 92.03644653 22.78100586 93.2253418 C23.45193095 96.21513704 24 98.92512562 24 102 C24.81863525 102.2482251 25.63727051 102.4964502 26.48071289 102.75219727 C30.59048646 104.2093636 34.40432667 106.03453253 38.30859375 107.96484375 C39.10340652 108.35393417 39.8982193 108.7430246 40.71711731 109.14390564 C42.41372903 109.97490946 44.10952408 110.80758235 45.80456543 111.64178467 C49.35227323 113.38767666 52.9039442 115.12542924 56.45553589 116.86340332 C58.21738162 117.72556804 59.97904044 118.58811482 61.74050903 119.4510498 C68.22719734 122.62756517 74.73000709 125.76733983 81.25 128.875 C82.12156738 129.29410645 82.99313477 129.71321289 83.89111328 130.14501953 C88.81949292 132.51016708 93.77232183 134.807469 98.75390625 137.05859375 C112.12997432 143.17781807 123.57082842 149.7004106 134.80029297 159.18652344 C138.75091758 162.44348677 142.88519015 165.45519806 147 168.5 C154.20335074 173.87128466 161.33066318 179.3299796 168.41088867 184.86230469 C174.9093282 189.93909821 181.45510665 194.95180945 188.01171875 199.953125 C191.7271835 202.78788036 195.42686882 205.64269684 199.125 208.5 C202.47873492 211.0878883 205.84315121 213.63187839 209.3125 216.0625 C210.199375 216.701875 211.08625 217.34125 212 218 C212 218.33 212 218.66 212 219 C187.93907128 219.32738391 163.87847742 219.57408559 139.81576824 219.72537041 C128.64228955 219.79749001 117.47019652 219.8957669 106.29760742 220.05615234 C96.55676308 220.19591777 86.81692231 220.28606614 77.0751031 220.31723893 C71.91862857 220.33545631 66.76502434 220.37809855 61.60947227 220.48022079 C56.75020412 220.57568889 51.8949699 220.60448256 47.03485298 220.58350754 C45.25737394 220.58734055 43.47975181 220.6149502 41.70308685 220.66887665 C28.64989586 221.0454409 28.64989586 221.0454409 24.21247506 217.62021875 C20.95193523 214.30623135 18.42210612 210.60662167 16.02155173 206.64075685 C14.6782417 204.48321057 13.11150971 202.5604768 11.46875 200.625 C10.97439453 200.02042969 10.48003906 199.41585937 9.97070312 198.79296875 C9.48537109 198.20128906 9.00003906 197.60960937 8.5 197 C3.9910388 191.47772885 -0.44844804 185.90812794 -4.8359375 180.2890625 C-8.33776351 175.81563158 -11.90816921 171.40137622 -15.5 167 C-20.02754072 161.45081941 -24.49515862 155.86084363 -28.90625 150.21875 C-32.24154728 145.95537 -35.61257434 141.72205605 -39 137.5 C-42.84264367 132.71056443 -46.65549827 127.89994408 -50.4375 123.0625 C-54.93969733 117.30751733 -59.53504201 111.632828 -64.1550293 105.97216797 C-68.1932346 101.0158339 -72.15746196 96.00628802 -76.09301758 90.96826172 C-80.31230088 85.57665114 -84.63825761 80.2771698 -89 75 C-81.61098927 67.54605948 -73.82551155 60.78749111 -65.53222656 54.37304688 C-60.33113172 50.32308288 -55.35873129 46.04205658 -50.40014648 41.70068359 C-45.91919093 37.78108878 -41.35819321 33.98030263 -36.73046875 30.234375 C-33.6803329 27.73841262 -30.68418793 25.18455886 -27.6875 22.625 C-22.50962023 18.21044593 -17.20900344 13.97734593 -11.84008789 9.7980957 C-7.78931715 6.63993608 -3.85358893 3.39482835 0 0 Z " fill="#3C0670" transform="translate(137,240)"/>
<path d="M0 0 C11.78858876 5.54656401 23.53103479 11.183088 35.25 16.875 C45.64002123 21.92127746 56.038851 26.94698029 66.46435547 31.91967773 C74.11222535 35.56958115 81.74509442 39.25023603 89.375 42.9375 C99.41295449 47.7883131 109.45755367 52.62494728 119.51123047 57.44311523 C125.24183396 60.19103544 130.96729098 62.949277 136.6875 65.71875 C137.66426697 66.19139282 137.66426697 66.19139282 138.6607666 66.67358398 C141.83131196 68.20777598 145.00122059 69.74325288 148.16992188 71.28125 C149.32041016 71.838125 150.47089844 72.395 151.65625 72.96875 C153.16928711 73.70254883 153.16928711 73.70254883 154.71289062 74.45117188 C157.7685303 75.97833016 157.7685303 75.97833016 160.18208218 76.69757271 C166.27955253 78.82836594 166.27955253 78.82836594 168.1710453 81.90442276 C168.99892654 84.37221663 169.55962269 86.79502629 170.06274414 89.34912109 C170.39235673 90.77796993 170.39235673 90.77796993 170.72862816 92.23568439 C171.45082825 95.4079336 172.11761231 98.58927723 172.78515625 101.7734375 C173.28639319 104.02385823 173.79110983 106.2735064 174.29908752 108.52241516 C175.65128063 114.55154854 176.95682301 120.58991191 178.25379181 126.63113022 C179.59875424 132.85755933 180.98602148 139.07452045 182.37060547 145.29223633 C184.30465139 153.9932117 186.22600146 162.69678699 188.12976456 171.40443897 C191.07442291 184.86964303 194.103068 198.31257685 197.22265625 211.73828125 C197.61166267 213.4155624 198.00064532 215.09284907 198.38960266 216.7701416 C199.6398214 222.15726764 200.89190321 227.54396053 202.14790726 232.92974091 C203.26624458 237.72591483 204.37388205 242.52442088 205.4765625 247.32421875 C205.75230606 248.49906326 206.02804962 249.67390778 206.31214905 250.88435364 C206.55283615 251.93789536 206.79352325 252.99143707 207.04150391 254.0769043 C207.25255768 254.98723923 207.46361145 255.89757416 207.68106079 256.835495 C208 259 208 259 207 261 C206.11699219 260.23816406 205.23398437 259.47632813 204.32421875 258.69140625 C196.96563144 252.35533171 189.54488252 246.11414924 182 240 C175.55381743 234.76188678 169.16575148 229.46458777 162.83642578 224.08642578 C159.41979268 221.18780161 155.97513003 218.32859421 152.5 215.5 C147.89910825 211.75508811 143.36648367 207.93678629 138.84692383 204.09472656 C135.32546842 201.10644373 131.77080461 198.16422283 128.1875 195.25 C127.29417969 194.51652344 126.40085937 193.78304687 125.48046875 193.02734375 C123.97428788 191.79630773 122.45847351 190.57677308 120.92578125 189.37890625 C114.80257477 184.39836711 110.28182989 178.18316195 105.51806641 171.95751953 C102.90592426 168.58920887 100.19992069 165.29804225 97.5 162 C92.9914756 156.47737204 88.55155775 150.90813537 84.1640625 145.2890625 C80.12759158 140.13264589 75.99699732 135.05571158 71.85351562 129.98510742 C67.72104475 124.9176465 63.66857015 119.79237911 59.68945312 114.60351562 C58.48473734 113.04922553 57.2429885 111.5238561 56 110 C55.33144485 109.12696732 54.66288971 108.25393463 53.97407532 107.35444641 C49.7149932 103.98271586 46.26781945 104.2922937 40.97729492 104.34057617 C39.97194702 104.33009247 38.96659912 104.31960876 37.93078613 104.30880737 C34.6137001 104.28004729 31.29765718 104.28635034 27.98046875 104.29296875 C25.67831615 104.27985437 23.37617507 104.26455096 21.0740509 104.24714661 C15.01923569 104.20725381 8.96472118 104.19710333 2.90979004 104.19311523 C-3.27051948 104.18379197 -9.45065172 104.14638341 -15.63085938 104.11132812 C-27.75389794 104.04670847 -39.87680429 104.0135042 -52 104 C-50.3569719 99.65914175 -48.33787342 95.53437216 -46.25976562 91.39013672 C-45.88539368 90.6396405 -45.51102173 89.88914429 -45.12530518 89.11590576 C-43.8876293 86.63615702 -42.64703506 84.15788179 -41.40625 81.6796875 C-40.53613818 79.9387892 -39.66614506 78.19783157 -38.79626465 76.45681763 C-36.96834233 72.79949808 -35.13897514 69.14290585 -33.30859375 65.48681641 C-30.99091228 60.85708966 -28.67676196 56.2256091 -26.36374664 51.59354973 C-24.56337183 47.98913639 -22.76104301 44.38570271 -20.95817566 40.78253555 C-20.10619286 39.0792265 -19.25478053 37.37563196 -18.40400696 35.6717186 C-12.42354459 23.69783696 -6.27462912 11.82238522 0 0 Z " fill="#8004A8" transform="translate(256,53)"/>
<path d="M0 0 C1.26662306 0.94324301 2.53230892 1.8877446 3.79760742 2.83276367 C4.5025383 3.35859543 5.20746918 3.88442719 5.9337616 4.42619324 C8.81578786 6.62136705 11.56807089 8.9492416 14.3125 11.3125 C18.34096031 14.75211344 22.38978415 18.15782448 26.5 21.5 C30.53983452 24.7882374 34.53083277 28.12731461 38.5 31.5 C44.27542544 36.40545844 50.11992099 41.22028665 56 46 C62.43563551 51.23130606 68.81537109 56.51907972 75.13500977 61.8894043 C80.36744154 66.32868643 85.67205643 70.67571714 91 75 C87.06794857 80.32163928 83.01158532 85.51217729 78.8125 90.625 C74.6565441 95.71082731 70.54072023 100.82212905 66.5 106 C62.54090967 111.07253915 58.50905204 116.07983142 54.4375 121.0625 C50.55018227 125.82173946 46.72660109 130.61374347 43 135.5 C38.73792101 141.08836614 34.33360701 146.54628513 29.88671875 151.98828125 C26.37663802 156.28936608 22.91582925 160.62376186 19.5 165 C15.55814729 170.04853993 11.54962386 175.03751699 7.5 180 C2.04793309 186.68395493 -3.30929607 193.43550376 -8.61767578 200.23388672 C-10.09333902 202.1192537 -11.57525469 203.99957323 -13.05859375 205.87890625 C-13.56116699 206.51618652 -14.06374023 207.1534668 -14.58154297 207.81005859 C-15.54466259 209.03102626 -16.50849166 210.25143476 -17.47314453 211.47119141 C-19.41274037 213.93340258 -21.2601116 216.3901674 -23 219 C-26.23075106 218.3946527 -28.17115413 217.33851982 -30.73046875 215.296875 C-31.79793335 214.45467407 -31.79793335 214.45467407 -32.88696289 213.59545898 C-33.64614014 212.98645752 -34.40531738 212.37745605 -35.1875 211.75 C-36.81458002 210.46418021 -38.44219665 209.17903921 -40.0703125 207.89453125 C-40.8943457 207.24178223 -41.71837891 206.5890332 -42.56738281 205.91650391 C-46.20339653 203.05192064 -49.88019035 200.24216741 -53.5625 197.4375 C-54.97006654 196.3633002 -56.37761861 195.28908142 -57.78515625 194.21484375 C-58.82760498 193.41989502 -58.82760498 193.41989502 -59.89111328 192.60888672 C-63.42986881 189.90914153 -66.96472723 187.20430311 -70.5 184.5 C-71.91664819 183.4166425 -73.33331485 182.33330916 -74.75 181.25 C-77.58333333 179.08333333 -80.41666667 176.91666667 -83.25 174.75 C-83.95229736 174.2130249 -84.65459473 173.6760498 -85.37817383 173.12280273 C-86.78455724 172.04718076 -88.19064805 170.97117609 -89.59643555 169.89477539 C-93.29303857 167.06513372 -96.99557317 164.24373046 -100.70703125 161.43359375 C-101.47789062 160.84835937 -102.24875 160.263125 -103.04296875 159.66015625 C-104.51635762 158.54180085 -105.99151906 157.42577549 -107.46875 156.3125 C-110.87710685 153.72162139 -114.06900611 151.14196518 -117 148 C-104.17673581 141.10207142 -91.18834221 134.65660731 -78.02539062 128.43408203 C-72.88260214 125.99632061 -67.75453892 123.52798418 -62.625 121.0625 C-61.60317627 120.57249512 -60.58135254 120.08249023 -59.52856445 119.57763672 C-53.991038 116.92180903 -48.45917184 114.25482476 -42.93359375 111.57421875 C-41.78358887 111.01790771 -40.63358398 110.46159668 -39.44873047 109.88842773 C-37.2287643 108.81429702 -35.01028202 107.73709285 -32.79345703 106.65649414 C-31.30434814 105.93707642 -31.30434814 105.93707642 -29.78515625 105.203125 C-28.90738525 104.77676758 -28.02961426 104.35041016 -27.12524414 103.91113281 C-25 103 -25 103 -23 103 C-22.76400085 101.78955017 -22.52800171 100.57910034 -22.28485107 99.33197021 C-19.88711225 87.13231337 -17.24781786 75.00483595 -14.453125 62.890625 C-14.03261372 61.05838514 -13.61235107 59.2260882 -13.19232178 57.39373779 C-12.10322696 52.64561182 -11.01083072 47.89825181 -9.91766357 43.15106201 C-8.79591601 38.27696169 -7.67740497 33.40211876 -6.55859375 28.52734375 C-4.37550202 19.0175137 -2.18890994 9.50849241 0 0 Z " fill="#D271E2" transform="translate(373,239)"/>
<path d="M0 0 C0.33 0.66 0.66 1.32 1 2 C-0.24726795 4.78248637 -1.56565248 7.44592961 -2.984375 10.140625 C-3.42342667 10.9908725 -3.86247833 11.84112 -4.31483459 12.71713257 C-5.27804129 14.58099993 -6.24477254 16.44304894 -7.21450806 18.30352783 C-9.84575728 23.35266055 -12.45135047 28.41500344 -15.05859375 33.4765625 C-15.88982002 35.08819778 -15.88982002 35.08819778 -16.73783875 36.73239136 C-21.04112674 45.09231636 -25.27342129 53.48594312 -29.47265625 61.8984375 C-29.78044636 62.51499207 -30.08823647 63.13154663 -30.40535355 63.76678467 C-33.14770598 69.26206015 -35.88512363 74.75978776 -38.61975098 80.25891113 C-39.77452534 82.58065902 -40.93000682 84.90205538 -42.08628845 87.22305298 C-43.1408289 89.33995727 -44.19362629 91.45773106 -45.24440002 93.57650757 C-45.71135788 94.51370636 -46.17831573 95.45090515 -46.65942383 96.41650391 C-47.26818108 97.64187363 -47.26818108 97.64187363 -47.88923645 98.89199829 C-49 101 -49 101 -51 104 C-57.38833524 103.37173135 -63.5919258 102.39224629 -69.87890625 101.109375 C-70.79991623 100.92460602 -71.72092621 100.73983704 -72.66984558 100.54946899 C-75.63486205 99.95353107 -78.59870009 99.35195646 -81.5625 98.75 C-83.61811672 98.33521451 -85.67378102 97.92066477 -87.72949219 97.50634766 C-100.43586677 94.94171306 -113.13858574 92.35934559 -125.81982422 89.67285156 C-129.0013951 88.99970483 -132.18377403 88.33049636 -135.36630249 87.66189575 C-138.42429666 87.0190518 -141.48190907 86.37440587 -144.53942871 85.72930908 C-146.04249796 85.41236577 -147.54567023 85.0959106 -149.0489502 84.77996826 C-151.14367962 84.33941428 -153.237912 83.89656906 -155.33203125 83.453125 C-156.54608643 83.19692383 -157.7601416 82.94072266 -159.01098633 82.67675781 C-162 82 -162 82 -165 81 C-164.62415771 81.79656006 -164.24831543 82.59312012 -163.86108398 83.41381836 C-156.05908597 99.96490501 -148.34177709 116.5497909 -140.80004883 133.22119141 C-137.33299391 140.8823095 -133.84014029 148.53062368 -130.3125 156.1640625 C-129.92073578 157.01267349 -129.52897156 157.86128448 -129.12533569 158.73561096 C-126.80731851 163.75644836 -126.80731851 163.75644836 -124.48223877 168.77401733 C-123.41485488 171.07323448 -122.35161141 173.37432664 -121.2890625 175.67578125 C-120.97001953 176.35963898 -120.65097656 177.0434967 -120.32226562 177.74807739 C-118.92158798 180.79054795 -117.63037148 183.69812884 -117 187 C-124.33738168 193.3305001 -131.69915703 199.61326554 -139.22265625 205.72265625 C-142.34396367 208.28204054 -145.4245003 210.88593791 -148.5 213.5 C-153.34814795 217.61989454 -158.24846005 221.66796095 -163.18359375 225.68359375 C-166.33785192 228.27787266 -169.4520298 230.91606265 -172.5625 233.5625 C-177.10450647 237.42532793 -181.70875465 241.18875368 -186.38671875 244.88671875 C-190.14083812 247.92256117 -193.80232968 251.06650977 -197.44726562 254.23242188 C-200.48757291 256.84217632 -203.54472279 258.98560657 -207 261 C-203.95981797 246.2536978 -200.66636755 231.57140356 -197.30859375 216.89453125 C-196.75760271 214.48079931 -196.20674835 212.06703616 -195.65602112 209.65324402 C-194.21007243 203.31755545 -192.76218884 196.98231061 -191.31390381 190.64715576 C-190.44821431 186.85937985 -189.58320603 183.07144914 -188.71850586 179.28344727 C-188.43679031 178.04944687 -188.15507477 176.81544647 -187.86482239 175.54405212 C-187.29743332 173.05784824 -186.73036579 170.57157094 -186.16362 168.08522034 C-184.75791048 161.92119206 -183.34556636 155.75883394 -181.91894531 149.59960938 C-179.44069624 138.8754537 -176.99827537 128.15345664 -174.81031704 117.36572742 C-173.90247933 112.90009571 -172.96294453 108.44139307 -172.0212574 103.98279381 C-171.59385848 101.91157294 -171.18283825 99.83689236 -170.78973198 97.75889015 C-167.43084628 80.02270142 -167.43084628 80.02270142 -160.39038086 74.76098633 C-155.38854279 71.84305573 -150.13372109 70.38983413 -144.54003906 69.01464844 C-138.80087336 67.36968481 -133.62981296 64.63467233 -128.33538818 61.92974854 C-125.28769313 60.38588439 -122.20517662 58.91517066 -119.125 57.4375 C-117.91654574 56.85441723 -116.7082109 56.27108688 -115.5 55.6875 C-109.15557133 52.62857903 -102.80413403 49.58428991 -96.453125 46.5390625 C-88.46235054 42.7059245 -80.48001525 38.85546575 -72.5 35 C-63.50579727 30.65453956 -54.50704047 26.31881048 -45.5 22 C-36.05620333 17.47134183 -26.61976443 12.92761454 -17.1875 8.375 C-16.23520508 7.91552979 -16.23520508 7.91552979 -15.26367188 7.44677734 C-13.4607811 6.57682145 -11.65812025 5.70638911 -9.85546875 4.8359375 C-8.82059326 4.33626465 -7.78571777 3.8365918 -6.71948242 3.32177734 C-4.47179282 2.2293102 -2.23209766 1.12388602 0 0 Z " fill="#C737F6" transform="translate(255,53)"/>
<path d="M0 0 C2.5908295 2.5908295 2.73715198 4.48911397 3.515625 8.0625 C3.79390137 9.3198999 4.07217773 10.5772998 4.35888672 11.87280273 C4.65594761 13.24853016 4.95298474 14.62426272 5.25 16 C5.56311897 17.4234448 5.87709402 18.84670153 6.19189453 20.26977539 C6.67190689 22.44032008 7.15136102 24.61097168 7.62808228 26.78224182 C8.99600886 33.01194895 10.42786945 39.22573647 11.875 45.4375 C12.35588 47.5285513 12.83632826 49.61970192 13.31640625 51.7109375 C14.23951317 55.72579283 15.17262744 59.73802748 16.12060547 63.74707031 C17.15795371 68.13430497 18.18075283 72.52476127 19.19659424 76.91702271 C19.59991164 78.64937706 20.00805621 80.38061634 20.42156982 82.11056519 C23.13683661 93.48493657 24.67092787 104.31468497 25 116 C25.10463216 118.24743494 25.21006872 120.49483261 25.31640625 122.7421875 C25.40421458 125.11958532 25.48586328 127.49721584 25.5625 129.875 C25.58367889 130.52958191 25.60485779 131.18416382 25.62667847 131.85858154 C26.49748979 160.21661627 26.08246667 188.63183992 26 217 C22.17792514 214.03307092 19.38738855 211.14599688 16.5 207.25 C12.62878591 202.09454596 8.64674603 197.05087369 4.5625 192.0625 C0.49030778 187.08036051 -3.54077759 182.07241399 -7.5 177 C-11.44185271 171.95146007 -15.45037614 166.96248301 -19.5 162 C-25.88153998 154.17655867 -32.12199109 146.24927935 -38.33398438 138.29101562 C-44.19893605 130.78216508 -50.13955026 123.34337472 -56.16357422 115.96142578 C-60.1073758 111.12072174 -63.98094377 106.23020411 -67.82055664 101.30664062 C-71.99298723 95.97152617 -76.27325079 90.72614063 -80.5859375 85.50390625 C-83.62909645 81.7929219 -86.41123361 78.04221836 -89 74 C-81.80091477 67.65794872 -74.59725639 61.3636103 -67 55.5 C-61.29107462 51.09050931 -55.82570529 46.45073548 -50.39892578 41.69970703 C-45.91846978 37.78033083 -41.35778695 33.97997378 -36.73046875 30.234375 C-33.6803329 27.73841262 -30.68418793 25.18455886 -27.6875 22.625 C-22.50962023 18.21044593 -17.20900344 13.97734593 -11.84008789 9.7980957 C-7.78931715 6.63993608 -3.85358893 3.39482835 0 0 Z " fill="#5D005C" transform="translate(137,240)"/>
<path d="M0 0 C11.1484679 1.72328761 22.19202037 3.96835393 33.25 6.1875 C34.24188324 6.38597534 35.23376648 6.58445068 36.25570679 6.78894043 C50.13278203 9.56856534 63.98340321 12.44282089 77.79589844 15.52807617 C80.07856337 16.03787134 82.36279406 16.54070888 84.64857483 17.03634644 C87.82804663 17.72997919 90.99207861 18.47623895 94.15653992 19.23521423 C108.66044943 22.60742507 122.36328335 23.73905244 137.21875 23.70703125 C139.42648657 23.72019543 141.63421122 23.73551375 143.84191895 23.75285339 C149.56272935 23.79216483 155.28322095 23.80285849 161.00415039 23.80688477 C166.87786202 23.81631946 172.7513941 23.85379553 178.625 23.88867188 C190.08332532 23.95269715 201.54151136 23.98638734 213 24 C213 24.33 213 24.66 213 25 C212.05535889 25.13986328 211.11071777 25.27972656 210.13745117 25.42382812 C199.86216297 26.94733935 189.59003781 28.49129591 179.31933594 30.04541016 C174.94035428 30.70782558 170.56071191 31.36566885 166.18066406 32.02099609 C160.36496852 32.89204798 154.55119869 33.77513733 148.73843384 34.66552734 C146.45807182 35.01296156 144.17712231 35.35656191 141.89559937 35.69628906 C138.67484011 36.17662849 135.45646328 36.67069497 132.23828125 37.16796875 C130.79390182 37.3786927 130.79390182 37.3786927 129.32034302 37.59367371 C122.90673114 38.60481309 118.27964036 39.99150492 114.08984375 45.23046875 C113.58130859 45.86017578 113.07277344 46.48988281 112.54882812 47.13867188 C112.01708984 47.81478516 111.48535156 48.49089844 110.9375 49.1875 C110.37095703 49.89583984 109.80441406 50.60417969 109.22070312 51.33398438 C104.87479835 56.80141296 100.68269971 62.37864413 96.52563477 67.99023438 C92.41262513 73.51837872 88.10017528 78.86325601 83.73242188 84.19116211 C78.68412841 90.35731378 73.77506065 96.61924113 69 103 C68.54109375 103.52730713 68.0821875 104.05461426 67.609375 104.59790039 C63.58360882 109.49370137 63.43843835 113.13532182 64 119.3125 C64.06396973 120.24690918 64.12793945 121.18131836 64.19384766 122.14404297 C64.43088289 125.4325784 64.71406383 128.715365 65 132 C65.16014919 133.97856149 65.32027066 135.95712537 65.47950745 137.9357605 C66.75301375 153.64460046 68.26299618 169.32575005 70.08544922 184.98095703 C70.77156474 191.03627184 71.13429531 196.90555095 71 203 C68.6896684 199.5345026 67.97011232 196.26062905 67.08203125 192.265625 C66.90410034 191.48835052 66.72616943 190.71107605 66.54284668 189.9102478 C65.96016679 187.35813388 65.38633245 184.8041164 64.8125 182.25 C64.40899843 180.47562327 64.00494058 178.70137296 63.6003418 176.92724609 C62.3920154 171.62000555 61.19481043 166.31029727 60 161 C59.66409782 159.50878111 59.32816237 158.01756971 58.9921875 156.52636719 C58.53240739 154.48551091 58.07287147 152.44460192 57.61430359 150.4034729 C56.8945126 147.20066648 56.16925937 143.99924571 55.43676758 140.79931641 C54.13482354 135.10735539 52.87188212 129.42017737 51.76171875 123.6875 C48.32278252 106.68773281 41.50139225 91.87894904 34.06298828 76.33984375 C30.9727152 69.86758717 28.01939897 63.33276864 25.05291748 56.8031311 C23.40665009 53.18265157 21.7522699 49.56588979 20.09765625 45.94921875 C19.7677771 45.22784225 19.43789795 44.50646576 19.09802246 43.76322937 C16.9337526 39.03292077 14.76138894 34.30638886 12.58482361 29.58172607 C11.08293873 26.32064504 9.58380547 23.05830272 8.08493042 19.7958374 C7.36539249 18.23176179 6.64447954 16.66831796 5.92214966 15.10552979 C4.92388962 12.94558665 3.9302072 10.78359329 2.9375 8.62109375 C2.6383519 7.97703079 2.3392038 7.33296783 2.0309906 6.66938782 C0 2.22772791 0 2.22772791 0 0 Z " fill="#E2C8FE" transform="translate(90,134)"/>
<path d="M0 0 C11.79370154 5.53550529 23.53118189 11.18315945 35.25 16.875 C45.64002123 21.92127746 56.038851 26.94698029 66.46435547 31.91967773 C74.11222535 35.56958115 81.74509442 39.25023603 89.375 42.9375 C99.41295449 47.7883131 109.45755367 52.62494728 119.51123047 57.44311523 C125.24183396 60.19103544 130.96729098 62.949277 136.6875 65.71875 C137.66426697 66.19139282 137.66426697 66.19139282 138.6607666 66.67358398 C141.83131196 68.20777598 145.00122059 69.74325288 148.16992188 71.28125 C154.40264064 74.29809538 160.65222563 77.23302143 167 80 C164.26843722 81.82104185 163.10305677 82.35046724 160.03637695 82.94213867 C159.23774231 83.09984741 158.43910767 83.25755615 157.61627197 83.42004395 C156.74903503 83.58435913 155.8817981 83.74867432 154.98828125 83.91796875 C153.62663849 84.18486511 153.62663849 84.18486511 152.23748779 84.45715332 C150.28274021 84.83989704 148.32742423 85.21974684 146.37161255 85.59701538 C141.21880616 86.59163486 136.07037027 87.60833722 130.921875 88.625 C129.89437637 88.82751877 128.86687775 89.03003754 127.8082428 89.23869324 C119.20024013 90.94282825 110.62712278 92.77870096 102.0625 94.6875 C92.16301437 96.88483953 82.25546104 99.02316733 72.31613159 101.03213501 C70.3684227 101.42618599 68.42162277 101.82472144 66.47485352 102.22338867 C65.30365967 102.45775635 64.13246582 102.69212402 62.92578125 102.93359375 C61.89880127 103.14040771 60.87182129 103.34722168 59.8137207 103.56030273 C57.14807404 103.97686062 54.6906794 104.03181508 52 104 C45.39897795 91.50129176 38.92594913 78.94515308 32.6171875 66.296875 C32.30236671 65.6657933 31.98754593 65.03471161 31.66318512 64.38450623 C29.39756963 59.84110661 27.13587508 55.29575995 24.875 50.75 C22.29165976 45.55599449 19.70609315 40.36310884 17.1171875 35.171875 C16.8081826 34.55167984 16.4991777 33.93148468 16.18080902 33.29249573 C11.84662899 24.59910554 7.42392244 15.9586499 2.79806519 7.41619873 C0 2.20637206 0 2.20637206 0 0 Z " fill="#4F2296" transform="translate(256,53)"/>
<path d="M0 0 C-0.99966797 1.16402344 -0.99966797 1.16402344 -2.01953125 2.3515625 C-7.40183352 8.64867852 -12.64901459 15.02385687 -17.73608398 21.56176758 C-21.21978071 26.03135844 -24.78384712 30.42896832 -28.375 34.8125 C-32.84191531 40.27272404 -37.18068867 45.81215096 -41.4375 51.4375 C-46.43652432 58.039785 -51.61633797 64.46384358 -56.90771484 70.83349609 C-60.98517772 75.74712856 -64.96268672 80.72624865 -68.88720703 85.76245117 C-72.36898389 90.22128973 -75.92272266 94.61752072 -79.5 99 C-84.02332948 104.54386915 -88.48851305 110.12723267 -92.89306641 115.76586914 C-96.83184833 120.80402995 -100.82961193 125.79369148 -104.85375977 130.76391602 C-108.05725019 134.74307531 -111.0635028 138.8194958 -114 143 C-114.99 142.67 -115.98 142.34 -117 142 C-116.67 141.67 -116.34 141.34 -116 141 C-115.88241207 139.56540626 -115.83270502 138.12517782 -115.81054688 136.6859436 C-115.78541016 135.28942818 -115.78541016 135.28942818 -115.75976562 133.86470032 C-115.74623047 132.83507675 -115.73269531 131.80545319 -115.71875 130.74462891 C-115.70070313 129.66665543 -115.68265625 128.58868195 -115.6640625 127.4780426 C-115.62535464 125.12846922 -115.5889185 122.7788576 -115.55444336 120.42921829 C-115.49982823 116.71488073 -115.43921033 113.0006853 -115.37695312 109.28646851 C-115.24585221 101.39939618 -115.1224181 93.51221064 -115 85.625 C-114.85821591 76.49588361 -114.71316594 67.36683491 -114.56030273 58.23789597 C-114.50052549 54.57129494 -114.44645687 50.90463733 -114.39257812 47.23794556 C-114.35574545 44.99667919 -114.31865037 42.75541712 -114.28125 40.51416016 C-114.26771484 39.48858505 -114.25417969 38.46300995 -114.24023438 37.40635681 C-114.22347656 36.46970688 -114.20671875 35.53305695 -114.18945312 34.56802368 C-114.17692505 33.75353571 -114.16439697 32.93904774 -114.15148926 32.09987831 C-114 30 -114 30 -113 27 C-110.4144777 26.05782459 -107.95775443 25.32564384 -105.29858398 24.65966797 C-104.09400748 24.34230084 -104.09400748 24.34230084 -102.86509609 24.01852226 C-100.24659485 23.33262396 -97.62372502 22.66560982 -95 22 C-93.2812511 21.55569756 -91.56267352 21.11073186 -89.8442688 20.6651001 C-84.30918204 19.23673471 -78.76659453 17.83886602 -73.22265625 16.4453125 C-71.73054029 16.06969492 -71.73054029 16.06969492 -70.20828056 15.68648911 C-64.97292021 14.36878902 -59.73687876 13.05383744 -54.50024414 11.74121094 C-49.09821207 10.38651605 -43.69872522 9.02193743 -38.29970646 7.6552906 C-34.1293423 6.60155028 -29.95718026 5.55507532 -25.78448296 4.5106163 C-23.79063453 4.01017843 -21.79747906 3.50697126 -19.80504036 3.00094986 C-17.03864346 2.29906375 -14.2698664 1.60748783 -11.50024414 0.91845703 C-10.67904083 0.70764999 -9.85783752 0.49684296 -9.01174927 0.27964783 C-3.34236363 -1.11412121 -3.34236363 -1.11412121 0 0 Z " fill="#D65FCC" transform="translate(464,315)"/>
<path d="M0 0 C2.96323322 3.54278585 4.77419435 7.5197556 6.66796875 11.69140625 C7.01977707 12.45623825 7.37158539 13.22107025 7.73405457 14.00907898 C8.88983207 16.5247916 10.03873715 19.04357746 11.1875 21.5625 C11.99456481 23.32342081 12.80202433 25.08416076 13.60986328 26.84472656 C15.26822558 30.46114479 16.92365804 34.07888257 18.57666016 37.69775391 C20.81948609 42.60742317 23.07087553 47.51311996 25.32421875 52.41796875 C33.34469747 69.88914437 41.24614388 87.40866226 49 105 C42.05013369 112.02251299 34.62087278 118.36001804 26.953125 124.58203125 C23.77174611 127.18689042 20.63232217 129.83660216 17.5 132.5 C12.65194019 136.61999681 7.75153743 140.66796299 2.81640625 144.68359375 C-0.33785192 147.27787266 -3.4520298 149.91606265 -6.5625 152.5625 C-11.10450647 156.42532793 -15.70875465 160.18875368 -20.38671875 163.88671875 C-24.14083812 166.92256117 -27.80232968 170.06650977 -31.44726562 173.23242188 C-34.48757291 175.84217632 -37.54472279 177.98560657 -41 180 C-37.95099432 165.20614155 -34.64356422 150.47754547 -31.2734375 135.75390625 C-30.72003795 133.33059474 -30.16678819 130.90724902 -29.61367798 128.48387146 C-28.16238822 122.12692814 -26.70923228 115.77041296 -25.25561523 109.41400146 C-23.52574743 101.84816778 -21.79796607 94.28185745 -20.06996536 86.71559715 C-18.66245923 80.55276155 -17.25462184 74.3900022 -15.84588623 68.22744751 C-13.21107836 56.69916508 -10.58200067 45.16964186 -7.96972656 33.63623047 C-7.61592517 32.07509285 -7.61592517 32.07509285 -7.25497627 30.48241711 C-6.15564077 25.63125223 -5.05776991 20.7797657 -3.96273804 15.92762756 C-3.58019912 14.23811508 -3.19760388 12.54861536 -2.81494141 10.85913086 C-2.64387501 10.09829885 -2.47280861 9.33746685 -2.29655838 8.55357933 C-1.63737795 5.64891033 -0.94266436 2.82799307 0 0 Z " fill="#7158E2" transform="translate(89,134)"/>
<path d="M0 0 C1.92884283 2.89326424 2.51541457 4.54477934 3.2674408 7.85917664 C3.49830383 8.86253052 3.72916687 9.8658844 3.96702576 10.89964294 C4.21372513 12.00099075 4.4604245 13.10233856 4.71459961 14.23706055 C4.98007599 15.39910004 5.24555237 16.56113953 5.51907349 17.75839233 C6.24939154 20.96074642 6.97411773 24.16430617 7.69648433 27.36846137 C8.46486013 30.77034375 9.24046042 34.17057842 10.01527405 37.57099915 C11.49455615 44.06808744 12.96751686 50.56659176 14.43817288 57.06563741 C16.2277216 64.97266344 18.0247931 72.87797529 19.82226562 80.78320312 C21.7316418 89.18080528 23.63991116 97.57864901 25.54159546 105.97799683 C28.4728734 118.92068651 31.42193801 131.85860036 34.43017578 144.78369141 C34.95739379 147.05563195 35.48454137 149.32758884 36.01161194 151.5995636 C36.98136457 155.7789226 37.95984301 159.95610577 38.94334412 164.13224792 C39.36955462 165.96674779 39.79544373 167.80132236 40.22094727 169.63598633 C40.51779639 170.87927295 40.51779639 170.87927295 40.82064247 172.14767647 C42.11371588 177.77256824 42.11371588 177.77256824 41 180 C40.11699219 179.23816406 39.23398437 178.47632813 38.32421875 177.69140625 C30.96563144 171.35533171 23.54488252 165.11414924 16 159 C9.55381743 153.76188678 3.16575148 148.46458777 -3.16357422 143.08642578 C-6.58020732 140.18780161 -10.02486997 137.32859421 -13.5 134.5 C-18.09883957 130.75675849 -22.63056124 126.94140563 -27.14648438 123.09912109 C-31.56085037 119.35060182 -36.04423711 115.69318793 -40.5625 112.0703125 C-43.1872833 109.84092925 -45.57768339 107.44599566 -48 105 C-38.72738528 84.5740424 -29.42647276 64.16124934 -20.09339905 43.7628479 C-17.54993119 38.20345136 -15.00896285 32.64291573 -12.46875 27.08203125 C-11.3591389 24.65329164 -10.24950286 22.22456344 -9.13986206 19.7958374 C-8.42565916 18.23245265 -7.7115669 16.66901735 -6.99758911 15.10552979 C-6.01043325 12.94390394 -5.02284315 10.78247699 -4.03515625 8.62109375 C-3.74116943 7.97703079 -3.44718262 7.33296783 -3.14428711 6.66938782 C-2.12166377 4.43234188 -1.10011016 2.20022032 0 0 Z " fill="#96237F" transform="translate(422,134)"/>
<path d="M0 0 C0.33 0 0.66 0 1 0 C0.34 38.28 -0.32 76.56 -1 116 C-5.12156891 116 -5.54062068 115.96692298 -8.51171875 113.61328125 C-9.17816406 113.09378906 -9.84460938 112.57429688 -10.53125 112.0390625 C-11.59859375 111.18441406 -11.59859375 111.18441406 -12.6875 110.3125 C-14.22245828 109.11042424 -15.75762014 107.90860842 -17.29296875 106.70703125 C-18.07591309 106.08908691 -18.85885742 105.47114258 -19.66552734 104.83447266 C-23.24854262 102.01887166 -26.87464169 99.26071014 -30.5 96.5 C-31.91690726 95.41698137 -33.3335732 94.33364693 -34.75 93.25 C-35.45125 92.71375 -36.1525 92.1775 -36.875 91.625 C-44.66666667 85.66666667 -52.45833333 79.70833333 -60.25 73.75 C-60.95229736 73.2130249 -61.65459473 72.6760498 -62.37817383 72.12280273 C-63.78455724 71.04718076 -65.19064805 69.97117609 -66.59643555 68.89477539 C-70.29303857 66.06513372 -73.99557317 63.24373046 -77.70703125 60.43359375 C-78.47789062 59.84835937 -79.24875 59.263125 -80.04296875 58.66015625 C-81.51635762 57.54180085 -82.99151906 56.42577549 -84.46875 55.3125 C-87.87710685 52.72162139 -91.06900611 50.14196518 -94 47 C-81.17673581 40.10207142 -68.18834221 33.65660731 -55.02539062 27.43408203 C-49.88260214 24.99632061 -44.75453892 22.52798418 -39.625 20.0625 C-38.60317627 19.57249512 -37.58135254 19.08249023 -36.52856445 18.57763672 C-30.991038 15.92180903 -25.45917184 13.25482476 -19.93359375 10.57421875 C-18.78358887 10.01790771 -17.63358398 9.46159668 -16.44873047 8.88842773 C-14.2287643 7.81429702 -12.01028202 6.73709285 -9.79345703 5.65649414 C-8.80071777 5.17688232 -7.80797852 4.69727051 -6.78515625 4.203125 C-5.90738525 3.77676758 -5.02961426 3.35041016 -4.12524414 2.91113281 C-2 2 -2 2 0 2 C0 1.34 0 0.68 0 0 Z " fill="#E271E0" transform="translate(350,340)"/>
<path d="M0 0 C3.40344829 1.09606149 6.68637486 2.21881152 9.89624023 3.79663086 C10.60321548 4.14177734 11.31019073 4.48692383 12.03858948 4.8425293 C12.78769089 5.21289307 13.5367923 5.58325684 14.30859375 5.96484375 C15.10349716 6.35397949 15.89840057 6.74311523 16.71739197 7.14404297 C18.41409503 7.975093 20.10998169 8.80781156 21.80511475 9.64205933 C25.35052897 11.38681678 28.89991471 13.12341738 32.44921875 14.86024475 C34.21014928 15.72195103 35.97089256 16.58404008 37.73144531 17.44651794 C44.262941 20.64498259 50.80921606 23.80991223 57.375 26.9375 C58.23867187 27.3490332 59.10234375 27.76056641 59.9921875 28.18457031 C61.7236993 29.00931672 63.45530737 29.83386107 65.18701172 30.65820312 C70.77561571 33.32397014 76.35600561 36.006888 81.9375 38.6875 C83.04206543 39.21786865 84.14663086 39.7482373 85.28466797 40.29467773 C87.85651783 41.52963425 90.42829738 42.7647369 93 44 C93 45.32 93 46.64 93 48 C90.7292492 50.00180589 88.52968528 51.70901684 86.0625 53.4375 C84.58258821 54.50938866 83.10344594 55.58234041 81.625 56.65625 C80.85800781 57.20796875 80.09101563 57.7596875 79.30078125 58.328125 C75.67094465 60.96576518 72.11781453 63.70069899 68.5625 66.4375 C67.13688859 67.53016954 65.71110638 68.62261627 64.28515625 69.71484375 C63.57762207 70.25737793 62.87008789 70.79991211 62.14111328 71.35888672 C58.59649432 74.0757543 55.04805485 76.78762209 51.5 79.5 C50.08852782 80.57940898 48.6770695 81.65883608 47.265625 82.73828125 C44.38059644 84.9445186 41.49513087 87.15018282 38.609375 89.35546875 C22.03593756 101.99317109 22.03593756 101.99317109 5.609375 114.8203125 C4 116 4 116 3 116 C2.14628492 104.03990979 1.72766765 92.1029796 1.46484375 80.1171875 C1.42166094 78.2454476 1.37824488 76.37371306 1.33460999 74.50198364 C1.24447894 70.60764651 1.15643483 66.71327006 1.07006836 62.81884766 C0.96015628 57.86577532 0.84604353 52.91281108 0.73049068 47.95986748 C0.64082326 44.10424707 0.55285185 40.24858945 0.46542549 36.39291763 C0.42395083 34.5679448 0.38209563 32.74298057 0.33982658 30.91802597 C0.1025342 20.60949096 -0.06147105 10.31188425 0 0 Z " fill="#07007D" transform="translate(161,342)"/>
<path d="M0 0 C2.5908295 2.5908295 2.73715198 4.48911397 3.515625 8.0625 C3.79390137 9.3198999 4.07217773 10.5772998 4.35888672 11.87280273 C4.65594761 13.24853016 4.95298474 14.62426272 5.25 16 C5.56311897 17.4234448 5.87709402 18.84670153 6.19189453 20.26977539 C6.67190689 22.44032008 7.15136102 24.61097168 7.62808228 26.78224182 C8.99600607 33.01193625 10.42678242 39.22599636 11.875 45.4375 C14.36286659 56.18040267 16.8171899 66.93091444 19.25152588 77.68606567 C19.66555538 79.51320642 20.08070778 81.3400931 20.49700928 83.16671753 C21.08184949 85.73414906 21.66253269 88.30248725 22.2421875 90.87109375 C22.50890259 92.03644653 22.50890259 92.03644653 22.78100586 93.2253418 C23.45193095 96.21513704 24 98.92512562 24 102 C10.66985246 99.11228892 -2.57783387 95.94424344 -15.8125 92.6484375 C-17.30648819 92.27706099 -17.30648819 92.27706099 -18.83065796 91.89818192 C-24.07262641 90.59510175 -29.31394414 89.28944358 -34.5546875 87.98144531 C-39.96233634 86.6323072 -45.3721263 85.29196303 -50.78242493 83.95349693 C-54.95960487 82.91848024 -59.13520837 81.87721488 -63.31039429 80.83418655 C-65.30657038 80.33665681 -67.30333526 79.84148325 -69.3006897 79.34870529 C-72.07325172 78.66404398 -74.84347454 77.97061319 -77.61328125 77.27490234 C-78.43807983 77.07331009 -79.26287842 76.87171783 -80.1126709 76.66401672 C-85.77173718 75.22826282 -85.77173718 75.22826282 -88 73 C-81.14146431 67.02744537 -74.25985306 61.12498013 -67.0625 55.5625 C-61.33533362 51.13010104 -55.84735791 46.46963572 -50.39916992 41.69995117 C-45.91866294 37.78045719 -41.35787652 33.98004628 -36.73046875 30.234375 C-33.6803329 27.73841262 -30.68418793 25.18455886 -27.6875 22.625 C-22.50962023 18.21044593 -17.20900344 13.97734593 -11.84008789 9.7980957 C-7.78931715 6.63993608 -3.85358893 3.39482835 0 0 Z " fill="#4F0770" transform="translate(137,240)"/>
<path d="M0 0 C1.46434982 -0.00175232 1.46434982 -0.00175232 2.95828247 -0.00354004 C6.17368624 0.00201803 9.38534501 0.06416373 12.60009766 0.12695312 C14.83352634 0.14187972 17.06698128 0.15326476 19.30044556 0.16125488 C25.17015294 0.19175536 31.03826877 0.27030286 36.90734863 0.35888672 C42.89976471 0.44082181 48.89243876 0.47728289 54.88525391 0.51757812 C66.63725408 0.60329708 78.38807462 0.7397808 90.13916016 0.90820312 C90.13916016 1.23820313 90.13916016 1.56820312 90.13916016 1.90820312 C89.19451904 2.04806641 88.24987793 2.18792969 87.27661133 2.33203125 C77.00132313 3.85554248 66.72919796 5.39949904 56.45849609 6.95361328 C52.07951443 7.61602871 47.69987207 8.27387197 43.31982422 8.92919922 C37.50412868 9.80025111 31.69035884 10.68334046 25.87759399 11.57373047 C23.59723197 11.92116468 21.31628247 12.26476504 19.03475952 12.60449219 C15.81400026 13.08483161 12.59562343 13.5788981 9.37744141 14.07617188 C7.93306198 14.28689583 7.93306198 14.28689583 6.45950317 14.50187683 C0.04589129 15.51301622 -4.58119949 16.89970805 -8.77099609 22.13867188 C-9.27953125 22.76837891 -9.78806641 23.39808594 -10.31201172 24.046875 C-10.84375 24.72298828 -11.37548828 25.39910156 -11.92333984 26.09570312 C-12.48988281 26.80404297 -13.05642578 27.51238281 -13.64013672 28.2421875 C-17.98604149 33.70961609 -22.17814013 39.28684726 -26.33520508 44.8984375 C-30.44821472 50.42658184 -34.76066456 55.77145914 -39.12841797 61.09936523 C-44.17671143 67.2655169 -49.08577919 73.52744426 -53.86083984 79.90820312 C-54.31974609 80.43551025 -54.77865234 80.96281738 -55.25146484 81.50610352 C-59.27723103 86.40190449 -59.4224015 90.04352494 -58.86083984 96.22070312 C-58.79687012 97.1551123 -58.73290039 98.08952148 -58.66699219 99.05224609 C-58.42995695 102.34078152 -58.14677601 105.62356812 -57.86083984 108.90820312 C-57.70069065 110.88676462 -57.54056918 112.86532849 -57.3813324 114.84396362 C-56.1078261 130.55280359 -54.59784366 146.23395318 -52.77539062 161.88916016 C-52.08927511 167.94447496 -51.72654453 173.81375407 -51.86083984 179.90820312 C-54.17117378 176.44270223 -54.89072161 173.16883167 -55.77880859 169.17382812 C-55.95683014 168.3961911 -56.13485168 167.61855408 -56.31826782 166.81735229 C-56.90088204 164.26560998 -57.47464154 161.71196335 -58.04833984 159.15820312 C-58.45038654 157.38968808 -58.85297918 155.62129706 -59.25610352 153.85302734 C-60.2730803 149.38498067 -61.28274044 144.91532118 -62.28942871 140.44494629 C-62.82553253 138.06494771 -63.36287249 135.68523319 -63.90087891 133.30566406 C-64.06297852 132.58869354 -64.22507813 131.87172302 -64.39208984 131.13302612 C-64.70654127 129.7423397 -65.02099436 128.35165366 -65.33544922 126.96096802 C-66.07073028 123.70726078 -66.80319732 120.45298103 -67.53173828 117.19775391 C-68.88089838 111.17786894 -70.26986033 105.1745773 -71.76757812 99.18994141 C-72.52588472 96.10857967 -73.20262057 93.01230541 -73.86083984 89.90820312 C-74.06708984 89.06515625 -74.27333984 88.22210938 -74.48583984 87.35351562 C-75.07358267 83.2246223 -74.21194419 81.40384103 -71.78271484 77.97460938 C-69.43132541 75.09394852 -66.92246138 72.36637491 -64.40429688 69.63183594 C-61.95508798 66.89671812 -59.72517854 64.00309541 -57.48583984 61.09570312 C-53.50798235 55.97967874 -49.45963439 50.9278244 -45.36083984 45.90820312 C-40.83674854 40.3636151 -36.371748 34.77880981 -31.96557617 29.14013672 C-28.05213489 24.13578354 -24.08451406 19.17604828 -20.0949707 14.23217773 C-19.62969971 13.65346924 -19.16442871 13.07476074 -18.68505859 12.47851562 C-18.24278742 11.93917641 -17.80051624 11.39983719 -17.34484291 10.84415436 C-15.82573807 8.93777924 -15.82573807 8.93777924 -14.61920738 6.84146881 C-10.60109376 0.44319908 -7.3116471 -0.23021193 0 0 Z " fill="#FDFCFE" transform="translate(212.86083984375,157.091796875)"/>
<path d="M0 0 C0.99 0.33 1.98 0.66 3 1 C3.96070434 3.88211302 4.10581883 5.69850044 4.0625 8.6875 C4.05347656 9.49574219 4.04445312 10.30398438 4.03515625 11.13671875 C4.02355469 11.75160156 4.01195312 12.36648438 4 13 C1.99706653 9.99559979 1.50728374 8.29006055 0.875 4.8125 C0.70742187 3.91144531 0.53984375 3.01039063 0.3671875 2.08203125 C0.24601563 1.39496094 0.12484375 0.70789063 0 0 Z " fill="#E0CEF0" transform="translate(157,324)"/>
</svg>
